<?xml version="1.0" standalone="no"?>
<!DOCTYPE svg PUBLIC "-//W3C//DTD SVG 20010904//EN"
 "http://www.w3.org/TR/2001/REC-SVG-20010904/DTD/svg10.dtd">
<svg version="1.0" xmlns="http://www.w3.org/2000/svg"
 width="102.000000pt" height="102.000000pt" viewBox="0 0 102.000000 102.000000"
 preserveAspectRatio="xMidYMid meet">
<metadata>
Created by potrace 1.11, written by Peter Selinger 2001-2013
</metadata>
<g transform="translate(0.000000,102.000000) scale(0.100000,-0.100000)"
fill="#000000" stroke="none">
<path d="M421 949 c-75 -15 -168 -65 -232 -126 -67 -63 -118 -157 -139 -253
-6 -30 -16 -65 -22 -77 -16 -33 4 -73 37 -73 34 0 52 43 32 74 -26 40 17 185
73 244 31 33 56 27 102 -23 23 -25 46 -45 52 -45 6 0 17 -4 25 -9 11 -7 5 -20
-32 -61 -26 -29 -47 -60 -47 -70 0 -10 -3 -32 -6 -49 -6 -26 -4 -31 14 -31 23
0 32 18 32 63 0 24 11 41 50 77 28 25 50 53 50 62 0 18 -45 58 -66 58 -7 0
-24 14 -36 30 -12 17 -36 39 -52 50 l-29 18 48 31 c27 17 73 40 102 51 63 23
177 37 187 22 10 -17 -4 -40 -30 -46 -31 -8 -91 -61 -110 -97 -19 -38 -18 -65
6 -89 22 -22 36 -19 97 22 23 15 44 28 47 28 3 0 6 -13 6 -30 0 -21 10 -39 35
-61 22 -20 39 -48 46 -73 5 -23 12 -49 15 -58 7 -23 46 -33 73 -19 36 20 54
68 46 125 l-6 51 24 -23 c36 -34 80 -27 88 13 l6 30 12 -30 c21 -50 34 -121
28 -146 -6 -23 -9 -24 -99 -24 -86 0 -93 -1 -93 -20 0 -18 8 -20 73 -23 47 -2
79 1 88 9 12 10 18 8 30 -9 21 -30 52 -28 66 4 9 20 9 30 -1 47 -8 11 -20 49
-27 84 -28 136 -128 269 -245 329 -94 47 -214 64 -318 43z m284 -78 c33 -15
81 -47 108 -71 44 -39 47 -45 47 -91 0 -53 -7 -60 -35 -29 -22 24 -38 25 -60
3 -14 -13 -16 -27 -11 -65 12 -88 -33 -123 -53 -41 -8 31 -24 57 -47 78 -19
18 -34 41 -34 54 0 65 -44 78 -108 31 -46 -33 -62 -37 -62 -15 0 24 58 82 105
104 30 14 47 29 51 46 8 32 25 32 99 -4z"/>
<path d="M447 624 c-4 -4 -7 -121 -7 -260 0 -203 -3 -253 -14 -257 -18 -7 -25
-38 -15 -65 7 -19 15 -23 46 -20 31 2 39 8 47 30 7 21 6 32 -7 46 -14 16 -17
52 -19 272 -3 240 -7 277 -31 254z m23 -559 c0 -8 -7 -15 -15 -15 -16 0 -20
12 -8 23 11 12 23 8 23 -8z"/>
<path d="M530 346 l0 -276 51 0 c36 0 55 -5 64 -16 26 -37 95 -10 95 37 0 42
-64 66 -90 34 -7 -8 -28 -15 -46 -15 -34 0 -34 1 -36 48 -1 26 -3 139 -3 252
0 187 -2 205 -17 208 -17 3 -18 -15 -18 -272z m170 -261 c0 -8 -7 -15 -15 -15
-8 0 -15 7 -15 15 0 8 7 15 15 15 8 0 15 -7 15 -15z"/>
<path d="M204 596 c-3 -9 -4 -33 0 -54 4 -29 4 -32 -4 -14 -12 28 -38 28 -50
0 -7 -17 -8 -12 -3 19 4 35 2 44 -12 49 -23 9 -35 -13 -31 -57 4 -48 12 -58
38 -51 18 4 20 2 16 -16 -7 -26 16 -50 28 -30 5 7 7 21 6 30 -2 13 4 16 24 15
28 -2 28 -1 28 58 1 49 -2 60 -17 63 -9 2 -20 -4 -23 -12z"/>
<path d="M832 588 c-19 -19 5 -38 48 -38 40 0 57 19 37 39 -15 15 -70 14 -85
-1z"/>
<path d="M357 554 c-4 -4 -7 -63 -7 -131 l0 -123 -60 0 -60 0 0 -41 c0 -23 -7
-47 -15 -55 -30 -31 -6 -94 37 -94 38 0 67 83 33 96 -8 4 -15 17 -15 30 0 21
5 23 58 26 l57 3 0 144 c0 135 -6 167 -28 145z m-92 -383 c7 -12 -12 -24 -25
-16 -11 7 -4 25 10 25 5 0 11 -4 15 -9z"/>
<path d="M614 537 c-2 -7 -3 -65 -2 -128 l3 -114 113 -3 c96 -2 115 -5 132
-22 25 -25 45 -25 70 0 25 25 26 52 2 73 -23 21 -42 21 -68 2 -13 -10 -47 -14
-116 -15 l-98 0 0 110 c0 92 -2 110 -15 110 -9 0 -18 -6 -21 -13z m296 -232
c0 -8 -7 -15 -15 -15 -8 0 -15 7 -15 15 0 8 7 15 15 15 8 0 15 -7 15 -15z"/>
<path d="M800 520 c0 -18 7 -20 59 -20 41 0 60 4 64 14 9 22 -2 26 -65 26 -51
0 -58 -2 -58 -20z"/>
</g>
</svg>
